<?xml version="1.0" encoding="UTF-8" standalone="no"?>
<!-- Created with Inkscape (http://www.inkscape.org/) -->

<svg
   width="92.830101mm"
   height="106.15734mm"
   viewBox="0 0 92.830101 106.15734"
   version="1.1"
   id="svg5"
   xml:space="preserve"
   inkscape:version="1.3 (0e150ed6c4, 2023-07-21)"
   sodipodi:docname="drawing.svg"
   xmlns:inkscape="http://www.inkscape.org/namespaces/inkscape"
   xmlns:sodipodi="http://sodipodi.sourceforge.net/DTD/sodipodi-0.dtd"
   xmlns:xlink="http://www.w3.org/1999/xlink"
   xmlns="http://www.w3.org/2000/svg"
   xmlns:svg="http://www.w3.org/2000/svg"><sodipodi:namedview
     id="namedview7"
     pagecolor="#313338"
     bordercolor="#000000"
     borderopacity="0.25"
     inkscape:showpageshadow="2"
     inkscape:pageopacity="0.0"
     inkscape:pagecheckerboard="0"
     inkscape:deskcolor="#d1d1d1"
     inkscape:document-units="mm"
     showgrid="false"
     inkscape:zoom="1.0544998"
     inkscape:cx="203.88814"
     inkscape:cy="370.31776"
     inkscape:window-width="1920"
     inkscape:window-height="1017"
     inkscape:window-x="1912"
     inkscape:window-y="-8"
     inkscape:window-maximized="1"
     inkscape:current-layer="layer1" /><defs
     id="defs2"><linearGradient
       id="linearGradient12"
       inkscape:collect="always"><stop
         style="stop-color:#ed5f5f;stop-opacity:1;"
         offset="0"
         id="stop13" /><stop
         style="stop-color:#7a4141;stop-opacity:1;"
         offset="0.69254667"
         id="stop15" /><stop
         style="stop-color:#353535;stop-opacity:1;"
         offset="1"
         id="stop14" /></linearGradient><linearGradient
       inkscape:collect="always"
       xlink:href="#linearGradient12"
       id="linearGradient14"
       x1="65.271896"
       y1="97.06485"
       x2="157.74716"
       y2="-7.9674129"
       gradientUnits="userSpaceOnUse"
       gradientTransform="translate(-25.847938,43.731261)" /></defs><g
     inkscape:label="Layer 1"
     inkscape:groupmode="layer"
     id="layer1"
     transform="translate(-38.772099,-35.461394)"><path
       style="font-variation-settings:normal;opacity:1;vector-effect:none;fill:url(#linearGradient14);fill-opacity:1;fill-rule:evenodd;stroke-width:0.265;stroke-linecap:butt;stroke-linejoin:miter;stroke-miterlimit:4;stroke-dasharray:none;stroke-dashoffset:0;stroke-opacity:1;-inkscape-stroke:none;stop-color:#000000;stop-opacity:1"
       d="m 38.772101,141.53545 c 0,-0.78418 6.239821,-17.81485 8.454052,-23.07408 0.638131,-1.51569 1.448546,-3.17484 1.800921,-3.687 0.936158,-1.36066 3.373796,-3.87719 5.049668,-5.2131 1.413176,-1.12651 3.116149,-2.07029 3.337054,-1.84938 0.05937,0.0594 -0.737161,1.82349 -1.770065,3.92026 -2.530526,5.13693 -4.75491,10.98456 -4.553185,11.96976 0.04082,0.19934 4.344511,-5.36728 10.479096,-13.55419 10.56897,-14.104816 13.68456,-18.117016 17.69081,-22.781896 6.65108,-7.7445 12.85017,-13.92122 30.511758,-30.401642 12.57991,-11.73859 16.92407,-15.7077 19.22063,-17.56124 0.9962,-0.80403 1.27187,-0.93611 1.52146,-0.72898 0.4499,0.37338 0.89172,1.55418 1.03336,2.76175 0.3602,3.07078 -1.43545,4.83791 -5.9622,5.86749 -0.80089,0.18216 -1.40302,0.4172 -1.33805,0.52232 0.065,0.10511 1.08043,0.19111 2.25661,0.19111 2.18025,0 2.76445,-0.16434 4.43771,-1.24836 0.25243,-0.16354 0.52868,-0.22764 0.61388,-0.14244 0.18176,0.18176 -0.19536,4.18021 -0.66136,7.01212 -0.45398,2.75889 -1.65783,5.19073 -3.62369,7.32007 -0.80973,0.87706 -1.47223,1.68473 -1.47223,1.79483 0,0.11009 0.56845,0.26448 1.26323,0.34308 1.62333,0.18366 1.85972,0.28328 1.85972,0.78373 0,0.587 -1.9566,4.32188 -3.37975,6.4515 -1.30305,1.949892 -2.301,2.929162 -4.55319,4.468022 -0.79295,0.5418 -1.36229,1.06452 -1.26521,1.16161 0.0971,0.0971 1.33977,0.27549 2.76151,0.39646 1.42175,0.12098 2.62972,0.26402 2.68439,0.31789 0.31885,0.31417 -3.03162,5.22528 -4.85321,7.11384 -1.86436,1.9329 -4.5706,3.61831 -7.42569,4.62461 -0.7443,0.26234 -1.43546,0.54869 -1.53591,0.63633 -0.24185,0.21103 1.24553,0.6004 3.01626,0.7896 0.78265,0.0836 1.4851,0.21415 1.561,0.29005 0.0759,0.0759 -0.002,0.35173 -0.17346,0.61295 -0.53732,0.81933 -3.7992,4.40268 -4.86631,5.34589 -1.21376,1.07284 -4.58629,3.2956 -6.98248,4.601996 -1.11755,0.60929 -2.47205,1.62847 -3.87373,2.91475 -3.168878,2.90801 -4.139988,3.66726 -5.987168,4.68099 -4.04488,2.21983 -9.0743,3.71104 -14.42016,4.27552 -4.05952,0.42866 -8.554,-0.67681 -11.782404,-2.89801 -0.51592,-0.35496 -1.027202,-0.64538 -1.136185,-0.64538 -0.108982,0 -0.361434,0.91346 -0.561004,2.02992 -1.02713,5.74608 -3.599189,10.73567 -7.779237,15.09112 -2.28439,2.38025 -5.117578,4.69282 -10.644782,8.68872 -4.441107,3.21071 -6.324436,4.67697 -7.859426,6.11893 -0.726491,0.68247 -1.093033,0.91334 -1.093033,0.68848 z m 21.742694,-39.88401 c -1.797381,-1.866956 -2.813481,-3.342536 -3.956396,-5.745456 -1.432522,-3.0118 -1.629573,-4.01679 -1.632882,-8.32787 -0.0035,-4.53891 0.422147,-6.70544 2.343729,-11.92996 0.85464,-2.32366 3.442572,-5.861202 3.930719,-5.373052 0.08534,0.0853 0.308285,1.202772 0.495441,2.483182 0.458276,3.13527 0.808266,4.74863 1.003901,4.62772 0.08915,-0.0551 0.21713,-0.7356 0.284397,-1.51223 0.19393,-2.23903 1.07747,-4.92817 2.652891,-8.074352 1.478541,-2.9527 3.222744,-5.74418 3.676437,-5.88388 0.1457,-0.0449 0.29019,0.20866 0.34968,0.61355 0.37009,2.51903 0.60591,3.72064 0.74733,3.80804 0.0895,0.0553 0.55958,-0.9984 1.04469,-2.34154 1.04105,-2.8824 3.11468,-7.31835 3.61091,-7.72453 0.27997,-0.22917 0.41091,-0.23442 0.66138,-0.0266 0.17176,0.14255 0.31652,0.36482 0.32168,0.49394 0.005,0.12911 0.12402,0.50312 0.26412,0.83112 l 0.25472,0.59636 1.14121,-1.94868 c 1.43348,-2.44774 4.41266,-5.50315 8.15485,-8.36352 1.45282,-1.11048 2.6942,-2.01905 2.7586,-2.01905 0.0644,0 0.11711,2.1236 0.11711,4.71912 0,2.59552 0.047,4.67215 0.1044,4.61473 0.0574,-0.0574 0.43252,-1.3144 0.83356,-2.7933 0.99733,-3.67781 2.01927,-5.69626 3.77082,-7.44782 2.23035,-2.23035 5.90922,-3.73966 6.723558,-2.75844 0.39585,0.47696 0.54816,0.42928 1.42538,-0.44618 0.96605,-0.96412 2.65248,-2.09253 4.54552,-3.04147 1.33729,-0.67035 3.00004,-1.16625 3.00004,-0.89473 0,0.0649 -0.36238,0.94191 -0.8053,1.94899 -1.3351,3.03573 -3.07329,8.78767 -3.4317,11.35606 -0.27055,1.93876 0.55531,0.31632 2.50345,-4.91816 2.44124,-6.55937 4.22149,-9.08307 6.40732,-9.08307 0.40055,0 0.55362,0.13424 0.65289,0.57254 0.0713,0.3149 0.19991,0.85361 0.28574,1.19714 l 0.15607,0.62459 0.39486,-0.70508 c 1.32049,-2.35787 2.59067,-3.40707 4.00992,-3.31228 1.4298,0.0955 1.51444,0.43217 0.68375,2.71989 -1.01052,2.78293 -1.28104,3.69173 -1.09893,3.69173 0.14691,0 0.50705,-0.60365 2.51192,-4.21036 0.95728,-1.72212 1.43874,-2.03554 3.12685,-2.03554 0.76534,0 1.86163,0.1396 2.43622,0.31024 1.16301,0.34538 2.77841,1.41624 2.77841,1.84183 0,0.15164 -0.44502,0.59091 -0.98893,0.97616 -0.54392,0.38525 -2.86271,2.16708 -5.15287,3.95963 -5.08124,3.97715 -7.49816,5.75025 -12.97648,9.51978 -8.80819,6.06075 -14.317398,10.78368 -23.770238,20.377712 -9.64437,9.78843 -16.77028,18.3063 -22.000357,26.29786 -1.164664,1.779596 -2.295165,3.460406 -2.512224,3.735116 l -0.394653,0.49947 z"
       id="path15"
       inkscape:export-filename=".\path15.svg"
       inkscape:export-xdpi="96"
       inkscape:export-ydpi="96" /></g></svg>
